<svg width="35" height="30" viewBox="0 0 35 30" fill="none" xmlns="http://www.w3.org/2000/svg">
<path d="M12.5051 22.2807H29.6001C30.1707 22.2807 30.6688 21.812 30.6688 21.182C30.6688 20.552 30.1707 20.0832 29.6001 20.0832H12.7538C11.9188 20.0832 11.4063 19.497 11.2745 18.6038L11.0401 17.0657H29.6288C31.7676 17.0657 32.8663 15.747 33.1738 13.6526L34.3457 5.90322C34.3768 5.7192 34.3964 5.53343 34.4045 5.34697C34.4045 4.64385 33.877 4.1601 33.0713 4.1601H9.1507L8.87195 2.3001C8.7257 1.17197 8.3157 0.600098 6.82195 0.600098H1.67945C1.09383 0.600098 0.595703 1.11385 0.595703 1.7001C0.595703 2.3001 1.09383 2.81322 1.68008 2.81322H6.6307L8.97445 18.897C9.28258 20.977 10.3807 22.2807 12.5051 22.2807ZM31.9138 6.37197L30.8751 13.3889C30.7576 14.297 30.2745 14.8538 29.4101 14.8538L10.7188 14.8682L9.4732 6.37197H31.9138ZM13.6626 29.4001C13.9749 29.4027 14.2847 29.3431 14.5738 29.2247C14.8629 29.1064 15.1255 28.9317 15.3464 28.7108C15.5673 28.4899 15.742 28.2273 15.8603 27.9382C15.9787 27.6491 16.0383 27.3393 16.0357 27.027C16.037 26.715 15.9765 26.4058 15.8578 26.1173C15.739 25.8287 15.5642 25.5666 15.3436 25.346C15.123 25.1253 14.8608 24.9506 14.5723 24.8318C14.2838 24.713 13.9746 24.6525 13.6626 24.6539C12.3301 24.6539 11.2751 25.7089 11.2751 27.027C11.2751 28.3601 12.3301 29.4001 13.6626 29.4001ZM27.3588 29.4001C28.692 29.4001 29.7463 28.3601 29.7463 27.027C29.7463 25.7082 28.692 24.6539 27.3588 24.6539C26.0407 24.6539 24.9713 25.7089 24.9713 27.027C24.9713 28.3601 26.0407 29.4001 27.3588 29.4001Z" fill="white"/>
</svg>
