<svg width="21" height="20" viewBox="0 0 21 20" fill="none" xmlns="http://www.w3.org/2000/svg">
<path d="M14.3907 7.97585L14.75 9.34365L6.9991 11.3798L6.63977 10.012L14.3907 7.97585ZM8.29938 0.559149L19.8136 7.28234C20.6124 7.74876 20.8789 8.76321 20.4124 9.56201L18.7316 12.4406C18.3499 12.2177 17.8953 12.1555 17.4678 12.2679C17.0403 12.3802 16.6749 12.6577 16.452 13.0394C16.2291 13.4212 16.167 13.8758 16.2793 14.3033C16.3916 14.7308 16.6691 15.0962 17.0508 15.3191L15.3701 18.1976C14.9036 18.9964 13.8892 19.2629 13.0904 18.7965L1.57619 12.0733C1.19447 11.8504 0.91693 11.4851 0.804619 11.0575C0.692308 10.63 0.754429 10.1754 0.977317 9.79366L2.65811 6.91512C3.45691 7.38154 4.47136 7.11504 4.93779 6.31624C5.16067 5.93452 5.22279 5.4799 5.11048 5.05238C4.99817 4.62485 4.72063 4.25946 4.33891 4.03657L6.01971 1.15802C6.2426 0.776304 6.60799 0.498761 7.03551 0.38645C7.46304 0.27414 7.91766 0.336261 8.29938 0.559149ZM7.45898 1.99842L6.39168 3.8263C6.68175 4.33381 6.83304 4.90876 6.83033 5.4933C6.82763 6.07785 6.67102 6.65138 6.37627 7.15618C6.08151 7.66098 5.65901 8.07925 5.15126 8.3689C4.64352 8.65855 4.06844 8.80937 3.4839 8.80619L2.41659 10.6341L13.9308 17.3573L14.9981 15.5294C14.708 15.0219 14.5567 14.4469 14.5594 13.8624C14.5621 13.2778 14.7187 12.7043 15.0135 12.1995C15.3082 11.6947 15.7308 11.2764 16.2385 10.9868C16.7462 10.6971 17.3213 10.5463 17.9059 10.5495L18.9732 8.72161L7.45898 1.99842ZM10.5766 5.74879C11.1739 6.09756 11.3745 6.86125 11.0257 7.45855C10.677 8.05584 9.91329 8.25647 9.31599 7.9077C8.71869 7.55894 8.51807 6.79525 8.86683 6.19795C9.2156 5.60065 9.97929 5.40003 10.5766 5.74879ZM12.0738 11.448C12.6711 11.7967 12.8717 12.5604 12.5229 13.1577C12.1742 13.755 11.4105 13.9556 10.8132 13.6069C10.2159 13.2581 10.0153 12.4944 10.364 11.8971C10.7128 11.2998 11.4765 11.0992 12.0738 11.448Z" fill="black"/>
</svg>
