<svg width="136" height="38" viewBox="0 0 136 38" fill="none" xmlns="http://www.w3.org/2000/svg">
<path d="M14.9669 4.76166V19.0001L11.7219 17.1458C5.96026 13.8345 2.3841 7.67556 2.3841 0.986816H0V17.2782C0 22.5762 3.04635 27.4769 7.88079 29.7948L15.0331 33.2385V19.0001L18.2781 20.8544C24.0397 24.1656 27.6159 30.3246 27.6159 37.0133H30V20.7219C30 15.4239 26.9536 10.5232 22.1192 8.20536L14.9669 4.76166Z" fill="white"/>
<path d="M57.624 16.072L55.344 17.848L54.936 17.728C54.872 17.2 54.704 16.696 54.432 16.216C54.176 15.72 53.824 15.32 53.376 15.016C52.928 14.712 52.376 14.56 51.72 14.56C50.952 14.56 50.344 14.8 49.896 15.28C49.448 15.76 49.224 16.328 49.224 16.984C49.224 17.672 49.416 18.264 49.8 18.76C50.184 19.24 50.664 19.664 51.24 20.032C51.816 20.384 52.4 20.712 52.992 21.016C53.936 21.496 54.744 21.968 55.416 22.432C56.104 22.88 56.632 23.376 57 23.92C57.384 24.464 57.576 25.12 57.576 25.888C57.576 26.704 57.352 27.448 56.904 28.12C56.472 28.792 55.888 29.368 55.152 29.848C54.432 30.328 53.64 30.696 52.776 30.952C51.928 31.208 51.08 31.336 50.232 31.336C49.256 31.336 48.344 31.128 47.496 30.712C46.648 30.296 45.944 29.696 45.384 28.912L47.712 26.296L48.168 26.464C48.168 27.056 48.304 27.64 48.576 28.216C48.848 28.776 49.24 29.24 49.752 29.608C50.28 29.976 50.896 30.16 51.6 30.16C52.176 30.16 52.696 30.024 53.16 29.752C53.624 29.464 53.992 29.096 54.264 28.648C54.536 28.184 54.672 27.704 54.672 27.208C54.672 26.744 54.544 26.328 54.288 25.96C54.032 25.576 53.728 25.224 53.376 24.904C53.024 24.584 52.568 24.272 52.008 23.968C51.448 23.664 50.856 23.344 50.232 23.008C49.608 22.656 49.016 22.272 48.456 21.856C47.896 21.424 47.44 20.936 47.088 20.392C46.736 19.848 46.56 19.224 46.56 18.52C46.56 17.656 46.736 16.912 47.088 16.288C47.44 15.664 47.912 15.16 48.504 14.776C49.096 14.392 49.76 14.112 50.496 13.936C51.248 13.744 52.016 13.648 52.8 13.648C54.032 13.648 55.048 13.832 55.848 14.2C56.664 14.552 57.256 15.176 57.624 16.072ZM71.0068 16.072L68.7268 17.848L68.3188 17.728C68.2548 17.2 68.0868 16.696 67.8148 16.216C67.5588 15.72 67.2068 15.32 66.7588 15.016C66.3108 14.712 65.7588 14.56 65.1028 14.56C64.3348 14.56 63.7268 14.8 63.2788 15.28C62.8308 15.76 62.6068 16.328 62.6068 16.984C62.6068 17.672 62.7988 18.264 63.1828 18.76C63.5668 19.24 64.0468 19.664 64.6228 20.032C65.1988 20.384 65.7828 20.712 66.3748 21.016C67.3188 21.496 68.1268 21.968 68.7988 22.432C69.4868 22.88 70.0148 23.376 70.3828 23.92C70.7668 24.464 70.9588 25.12 70.9588 25.888C70.9588 26.704 70.7348 27.448 70.2868 28.12C69.8548 28.792 69.2708 29.368 68.5348 29.848C67.8148 30.328 67.0228 30.696 66.1588 30.952C65.3108 31.208 64.4628 31.336 63.6148 31.336C62.6388 31.336 61.7268 31.128 60.8788 30.712C60.0308 30.296 59.3268 29.696 58.7668 28.912L61.0948 26.296L61.5508 26.464C61.5508 27.056 61.6868 27.64 61.9588 28.216C62.2308 28.776 62.6228 29.24 63.1348 29.608C63.6628 29.976 64.2788 30.16 64.9828 30.16C65.5588 30.16 66.0788 30.024 66.5428 29.752C67.0068 29.464 67.3748 29.096 67.6468 28.648C67.9188 28.184 68.0548 27.704 68.0548 27.208C68.0548 26.744 67.9268 26.328 67.6708 25.96C67.4148 25.576 67.1108 25.224 66.7588 24.904C66.4068 24.584 65.9508 24.272 65.3908 23.968C64.8308 23.664 64.2388 23.344 63.6148 23.008C62.9908 22.656 62.3988 22.272 61.8388 21.856C61.2788 21.424 60.8228 20.936 60.4708 20.392C60.1188 19.848 59.9428 19.224 59.9428 18.52C59.9428 17.656 60.1188 16.912 60.4708 16.288C60.8228 15.664 61.2948 15.16 61.8868 14.776C62.4788 14.392 63.1428 14.112 63.8788 13.936C64.6308 13.744 65.3988 13.648 66.1828 13.648C67.4148 13.648 68.4308 13.832 69.2308 14.2C70.0468 14.552 70.6388 15.176 71.0068 16.072ZM84.1978 18.208L82.7818 30.376L80.7658 31.048L80.4298 30.928L82.2298 22.36C82.3738 21.704 82.5098 21.016 82.6378 20.296C82.7818 19.576 82.9018 18.88 82.9978 18.208C83.0938 17.536 83.1418 16.952 83.1418 16.456C83.1418 16.056 82.9658 15.72 82.6138 15.448C82.2618 15.16 81.6378 14.992 80.7418 14.944V14.368L80.9338 14.176H86.3338C87.1178 16.352 87.9418 18.512 88.8058 20.656C89.6698 22.784 90.6298 24.896 91.6858 26.992C91.7178 27.056 91.7658 27.088 91.8298 27.088C91.8778 27.088 91.9338 27.056 91.9978 26.992C92.2858 26.528 92.5978 26 92.9338 25.408C93.2858 24.816 93.6298 24.224 93.9658 23.632C94.3178 23.04 94.6378 22.496 94.9258 22C95.2138 21.488 95.4458 21.08 95.6218 20.776C95.7978 20.456 95.8858 20.296 95.8858 20.296C96.4138 19.304 96.9178 18.312 97.3978 17.32C97.8778 16.328 98.2778 15.304 98.5978 14.248L102.486 14.2L102.63 14.488L102.174 14.968C102.062 15.08 101.99 15.264 101.958 15.52C101.942 15.76 101.934 16.16 101.934 16.72V20.224C101.934 21.296 101.958 22.36 102.006 23.416C102.07 24.472 102.15 25.528 102.246 26.584C102.31 27.16 102.374 27.688 102.438 28.168C102.518 28.632 102.662 29.008 102.87 29.296C103.078 29.568 103.406 29.704 103.854 29.704C104.078 29.704 104.318 29.696 104.574 29.68C104.846 29.648 105.07 29.624 105.246 29.608L105.342 30.256C105.246 30.256 104.998 30.312 104.598 30.424C104.198 30.536 103.734 30.672 103.206 30.832C102.678 30.976 102.174 31.104 101.694 31.216C101.214 31.328 100.854 31.384 100.614 31.384C100.15 31.384 99.7978 31.248 99.5578 30.976C99.3338 30.704 99.2218 30.408 99.2218 30.088C99.2218 29.736 99.2218 29.2 99.2218 28.48C99.2218 27.76 99.2138 26.944 99.1978 26.032C99.1978 25.12 99.1818 24.192 99.1498 23.248C99.1338 22.304 99.1018 21.432 99.0538 20.632C99.0218 19.832 98.9738 19.184 98.9098 18.688C98.8458 18.192 98.7658 17.944 98.6698 17.944C98.6378 17.944 98.5658 18.032 98.4538 18.208C97.1578 20.336 95.9418 22.456 94.8058 24.568C93.6858 26.664 92.5498 28.816 91.3978 31.024H89.6218C88.8378 28.832 88.0458 26.688 87.2458 24.592C86.4458 22.48 85.5658 20.36 84.6058 18.232C84.5578 18.12 84.4858 18.064 84.3898 18.064C84.2618 18.064 84.1978 18.112 84.1978 18.208ZM115.691 20.08L117.131 19.168L117.467 19.384C117.355 20.472 117.259 21.568 117.179 22.672C117.115 23.76 117.083 24.848 117.083 25.936C117.083 27.008 117.115 27.832 117.179 28.408C117.243 28.968 117.475 29.248 117.875 29.248C118.147 29.248 118.435 29.136 118.739 28.912C119.043 28.672 119.315 28.448 119.555 28.24L120.011 28.744C119.691 29.128 119.323 29.52 118.907 29.92C118.507 30.304 118.067 30.632 117.587 30.904C117.107 31.16 116.595 31.288 116.051 31.288C115.507 31.288 115.131 31.112 114.923 30.76C114.731 30.408 114.611 30.056 114.563 29.704L114.251 29.584C113.627 30.048 112.931 30.464 112.163 30.832C111.395 31.184 110.603 31.36 109.787 31.36C109.147 31.36 108.603 31.2 108.155 30.88C107.723 30.56 107.371 30.144 107.099 29.632C106.843 29.12 106.659 28.584 106.547 28.024C106.435 27.448 106.379 26.912 106.379 26.416C106.379 23.984 106.867 22.152 107.843 20.92C108.835 19.672 110.283 19.048 112.187 19.048C112.843 19.048 113.459 19.144 114.035 19.336C114.611 19.512 115.163 19.76 115.691 20.08ZM114.419 28.192C114.467 27.84 114.499 27.368 114.515 26.776C114.547 26.168 114.571 25.536 114.587 24.88C114.603 24.208 114.611 23.6 114.611 23.056C114.611 22.64 114.563 22.192 114.467 21.712C114.371 21.232 114.163 20.824 113.843 20.488C113.539 20.136 113.059 19.96 112.403 19.96C111.715 19.96 111.155 20.144 110.723 20.512C110.291 20.864 109.955 21.328 109.715 21.904C109.475 22.464 109.307 23.064 109.211 23.704C109.131 24.344 109.091 24.936 109.091 25.48C109.091 25.896 109.123 26.336 109.187 26.8C109.267 27.264 109.403 27.704 109.595 28.12C109.787 28.52 110.043 28.848 110.363 29.104C110.699 29.36 111.115 29.488 111.611 29.488C112.155 29.488 112.667 29.352 113.147 29.08C113.643 28.808 114.067 28.512 114.419 28.192ZM124.251 14.272L124.563 14.56L124.371 25.456C124.371 25.616 124.363 25.784 124.347 25.96C124.347 26.136 124.347 26.312 124.347 26.488C124.347 27.336 124.395 27.992 124.491 28.456C124.603 28.904 124.859 29.128 125.259 29.128C125.595 29.128 125.915 29.016 126.219 28.792C126.523 28.552 126.795 28.304 127.035 28.048H127.323L127.707 28.432C127.403 28.832 127.043 29.248 126.627 29.68C126.227 30.096 125.787 30.448 125.307 30.736C124.827 31.024 124.323 31.168 123.795 31.168C123.107 31.168 122.619 31.008 122.331 30.688C122.059 30.368 121.891 29.968 121.827 29.488C121.779 29.008 121.755 28.52 121.755 28.024C121.755 27.112 121.771 26.192 121.803 25.264C121.835 24.336 121.851 23.384 121.851 22.408C121.851 21.736 121.851 21.056 121.851 20.368C121.851 19.68 121.843 19.008 121.827 18.352C121.811 18 121.795 17.616 121.779 17.2C121.779 16.784 121.755 16.472 121.707 16.264C121.611 15.848 121.355 15.608 120.939 15.544C120.523 15.48 120.059 15.44 119.547 15.424V14.872L119.835 14.68L124.251 14.272ZM131.985 14.272L132.297 14.56L132.105 25.456C132.105 25.616 132.097 25.784 132.081 25.96C132.081 26.136 132.081 26.312 132.081 26.488C132.081 27.336 132.129 27.992 132.225 28.456C132.337 28.904 132.593 29.128 132.993 29.128C133.329 29.128 133.649 29.016 133.953 28.792C134.257 28.552 134.529 28.304 134.769 28.048H135.057L135.441 28.432C135.137 28.832 134.777 29.248 134.361 29.68C133.961 30.096 133.521 30.448 133.041 30.736C132.561 31.024 132.057 31.168 131.529 31.168C130.841 31.168 130.353 31.008 130.065 30.688C129.793 30.368 129.625 29.968 129.561 29.488C129.513 29.008 129.489 28.52 129.489 28.024C129.489 27.112 129.505 26.192 129.537 25.264C129.569 24.336 129.585 23.384 129.585 22.408C129.585 21.736 129.585 21.056 129.585 20.368C129.585 19.68 129.577 19.008 129.561 18.352C129.545 18 129.529 17.616 129.513 17.2C129.513 16.784 129.489 16.472 129.441 16.264C129.345 15.848 129.089 15.608 128.673 15.544C128.257 15.48 127.793 15.44 127.281 15.424V14.872L127.569 14.68L131.985 14.272Z" fill="white"/>
</svg>
