<svg width="35" height="36" viewBox="0 0 35 36" fill="none" xmlns="http://www.w3.org/2000/svg">
<path d="M30.625 30.0312L22.4219 21.8281M5.46875 14.7188C5.46875 16.0114 5.72337 17.2915 6.21806 18.4858C6.71276 19.6801 7.43784 20.7653 8.35192 21.6793C9.26599 22.5934 10.3512 23.3185 11.5455 23.8132C12.7398 24.3079 14.0198 24.5625 15.3125 24.5625C16.6052 24.5625 17.8852 24.3079 19.0795 23.8132C20.2738 23.3185 21.359 22.5934 22.2731 21.6793C23.1872 20.7653 23.9122 19.6801 24.4069 18.4858C24.9016 17.2915 25.1563 16.0114 25.1562 14.7188C25.1562 12.108 24.1191 9.60423 22.2731 7.75817C20.427 5.91211 17.9232 4.875 15.3125 4.875C12.7018 4.875 10.198 5.91211 8.35192 7.75817C6.50586 9.60423 5.46875 12.108 5.46875 14.7188Z" stroke="white" stroke-width="2.5" stroke-linecap="round" stroke-linejoin="round"/>
</svg>
